# xmcd CD database file
#
# Track frame offsets:
#	150
#	11772
#	31332
#	47540
#	74212
#	95990
#	117675
#	130865
#	155847
#	182052
#	196427
#	217615
#
# Disc length: 3157 seconds
#
# Revision: 0
# Processed by: cddbd v1.5.1PL2 Copyright (c) Steve Scherf et al.
# Submitted via: CDex 1.60beta1
#
DISCID=b50c530c
DTITLE=Adi Yeshaya - A Nice One for Boo
DYEAR=1993
DGENRE=Jazz
TTITLE0=Get Happy
TTITLE1=I Got Lucky
TTITLE2=Theme for Lalo
TTITLE3=Some Other Time
TTITLE4=It's Over Now-Well you Needn't
TTITLE5=Overtime Shuffle
TTITLE6=Day in, Day Out
TTITLE7=Where Am I Going?
TTITLE8=A Nice One for Boo
TTITLE9=You Make Me Feel So Young
TTITLE10=The Night Has a Thousand Eyes
TTITLE11=Maybe This Time
EXTD=YEAR: 1993
EXTT0=
EXTT1=
EXTT2=
EXTT3=
EXTT4=
EXTT5=
EXTT6=
EXTT7=
EXTT8=
EXTT9=
EXTT10=
EXTT11=
PLAYORDER=
